<svg xmlns="http://www.w3.org/2000/svg" viewBox="0 0 200 320" fill="none">
  <defs>
    <linearGradient id="bottleGrad" x1="0%" y1="0%" x2="0%" y2="100%">
      <stop offset="0%" stop-color="#5AC8FA"/>
      <stop offset="100%" stop-color="#007AFF"/>
    </linearGradient>
    <linearGradient id="capGrad" x1="0%" y1="0%" x2="0%" y2="100%">
      <stop offset="0%" stop-color="#5AC8FA"/>
      <stop offset="100%" stop-color="#007AFF"/>
    </linearGradient>
    <filter id="glow" x="-50%" y="-50%" width="200%" height="200%">
      <feGaussianBlur stdDeviation="3" result="coloredBlur"/>
      <feMerge><feMergeNode in="coloredBlur"/><feMergeNode in="SourceGraphic"/></feMerge>
    </filter>
  </defs>
  <ellipse cx="100" cy="295" rx="65" ry="15" fill="rgba(0,122,255,0.2)"/>
  <path d="M70 50 L70 30 Q70 20 80 20 L120 20 Q130 20 130 30 L130 50 Q130 60 140 65 L140 290 Q140 305 100 305 Q60 305 60 290 L60 65 Q70 60 70 50Z" fill="url(#bottleGrad)" opacity="0.9"/>
  <rect x="80" y="8" width="40" height="20" rx="3" fill="url(#capGrad)"/>
  <rect x="85" y="5" width="30" height="8" rx="2" fill="#5AC8FA"/>
  <path d="M75 50 Q75 35 100 35 Q125 35 125 50" fill="rgba(255,255,255,0.3)"/>
  <ellipse cx="85" cy="120" rx="8" ry="30" fill="rgba(255,255,255,0.2)"/>
  <text x="100" y="180" text-anchor="middle" font-family="Arial, sans-serif" font-size="16" font-weight="bold" fill="white">ÁGUA</text>
  <text x="100" y="200" text-anchor="middle" font-family="Arial, sans-serif" font-size="14" fill="rgba(255,255,255,0.8)">MINERAL</text>
  <text x="100" y="240" text-anchor="middle" font-family="Arial, sans-serif" font-size="28" font-weight="bold" fill="white" filter="url(#glow)">20L</text>
  <circle cx="100" cy="80" r="15" fill="rgba(255,255,255,0.3)"/>
  <path d="M95 75 L105 75 M100 70 L100 80" stroke="white" stroke-width="2"/>
  <path d="M75 290 Q75 280 85 275 L115 275 Q125 280 125 290" fill="rgba(0,0,0,0.1)"/>
</svg>