<svg xmlns="http://www.w3.org/2000/svg" viewBox="0 0 120 200" fill="none">
  <defs>
    <linearGradient id="detGrad" x1="0%" y1="0%" x2="0%" y2="100%">
      <stop offset="0%" stop-color="#3498DB"/>
      <stop offset="100%" stop-color="#2980B9"/>
    </linearGradient>
    <filter id="glowBlue" x="-50%" y="-50%" width="200%" height="200%">
      <feGaussianBlur stdDeviation="2" result="coloredBlur"/>
      <feMerge><feMergeNode in="coloredBlur"/><feMergeNode in="SourceGraphic"/></feMerge>
    </filter>
  </defs>
  <ellipse cx="60" cy="185" rx="35" ry="8" fill="rgba(0,122,255,0.2)"/>
  <path d="M35 40 L35 170 Q35 180 60 180 Q85 180 85 170 L85 40 Q85 35 75 35 L45 35 Q35 35 35 40Z" fill="url(#detGrad)" opacity="0.9"/>
  <rect x="45" y="15" width="30" height="25" rx="5" fill="#2980B9"/>
  <rect x="50" y="10" width="20" height="10" rx="3" fill="#3498DB"/>
  <text x="60" y="8" text-anchor="middle" font-family="Arial" font-size="6" fill="#2980B9">PUSH</text>
  <rect x="40" y="50" width="40" height="60" rx="3" fill="white" opacity="0.9"/>
  <text x="60" y="70" text-anchor="middle" font-family="Arial Black" font-size="10" fill="#2980B9">DETERGENTE</text>
  <text x="60" y="85" text-anchor="middle" font-family="Arial" font-size="8" fill="#3498DB">LÍQUIDO</text>
  <text x="60" y="100" text-anchor="middle" font-family="Arial Black" font-size="14" fill="#2980B9">2L</text>
  <path d="M30 40 Q20 30 25 20 L95 20 Q100 30 90 40" fill="rgba(255,255,255,0.2)"/>
  <ellipse cx="45" cy="130" rx="8" ry="15" fill="rgba(255,255,255,0.3)"/>
</svg>