<svg xmlns="http://www.w3.org/2000/svg" viewBox="0 0 200 300" fill="none">
  <defs>
    <linearGradient id="tankGrad" x1="0%" y1="0%" x2="100%" y2="100%">
      <stop offset="0%" stop-color="#E8E8E8"/>
      <stop offset="50%" stop-color="#D0D0D0"/>
      <stop offset="100%" stop-color="#A0A0A0"/>
    </linearGradient>
    <linearGradient id="labelGrad" x1="0%" y1="0%" x2="0%" y2="100%">
      <stop offset="0%" stop-color="#FF6B35"/>
      <stop offset="100%" stop-color="#E74C3C"/>
    </linearGradient>
    <filter id="shadow" x="-20%" y="-20%" width="140%" height="140%">
      <feDropShadow dx="0" dy="4" stdDeviation="8" flood-color="#000" flood-opacity="0.3"/>
    </filter>
  </defs>
  <ellipse cx="100" cy="280" rx="55" ry="12" fill="rgba(0,0,0,0.15)"/>
  <ellipse cx="100" cy="260" rx="50" ry="20" fill="url(#tankGrad)" filter="url(#shadow)"/>
  <rect x="50" y="50" width="100" height="210" rx="50" fill="url(#tankGrad)" filter="url(#shadow)"/>
  <ellipse cx="100" cy="50" rx="50" ry="20" fill="url(#tankGrad)"/>
  <rect x="50" y="50" width="100" height="50" rx="25" fill="url(#tankGrad)"/>
  <circle cx="100" cy="50" r="15" fill="#888"/>
  <circle cx="100" cy="50" r="10" fill="#666"/>
  <rect x="65" y="90" width="70" height="80" rx="5" fill="url(#labelGrad)"/>
  <text x="100" y="120" text-anchor="middle" font-family="Arial Black, sans-serif" font-size="12" fill="white">GÁS</text>
  <text x="100" y="138" text-anchor="middle" font-family="Arial Black, sans-serif" font-size="16" fill="white">P13</text>
  <text x="100" y="158" text-anchor="middle" font-family="Arial, sans-serif" font-size="8" fill="rgba(255,255,255,0.8)">BOTIJÃO 13KG</text>
  <rect x="75" y="180" width="50" height="3" rx="1" fill="rgba(255,255,255,0.5)"/>
  <text x="100" y="200" text-anchor="middle" font-family="Arial, sans-serif" font-size="9" fill="white">ENVASE SEGURO</text>
  <path d="M75 240 Q100 225 125 240" stroke="#999" stroke-width="2" fill="none"/>
</svg>